# xmcd CD database file
#
# Track frame offsets:
#	150
#	22126
#	50814
#	70563
#	89563
#	113640
#	137384
#	161462
#	179967
#	206913
#	227333
#	252653
#	265717
#	283309
#
# Disc length: 4200 seconds
#
# Revision: 0
# Processed by: cddbd v1.5.1PL2 Copyright (c) Steve Scherf et al.
# Submitted via: Feurio! 1.68 - http://www.feurio.com
#
DISCID=d310660e
DTITLE=Leonhard Cohen - Ten New Songs
DYEAR=1900
DGENRE=
TTITLE0=Leonard Cohen - In My Secret Life
TTITLE1=Leonard Cohen - A Thousand Kisses Deep
TTITLE2=Leonard Cohen - That Don't Make It Junk
TTITLE3=Leonard Cohen - Here It Is
TTITLE4=Leonard Cohen - Love Itself
TTITLE5=Leonard Cohen - By The Rivers Dark
TTITLE6=Leonard Cohen - Alaxandra Leaving
TTITLE7=Leonard Cohen - You Have Loved Enough
TTITLE8=Leonard Cohen - Boogie Street
TTITLE9=Leonard Cohen - The land Of Plenty
TTITLE10=Leonard Cohen - Love Itself
TTITLE11=Leonard Cohen - Lady Midnight
TTITLE12=Leonard Cohen - Wild roses
TTITLE13=Leonard Cohen - -A Thousand Kisses Deep
EXTD=
EXTT0=
EXTT1=
EXTT2=
EXTT3=
EXTT4=
EXTT5=
EXTT6=
EXTT7=
EXTT8=
EXTT9=
EXTT10=
EXTT11=
EXTT12=
EXTT13=
PLAYORDER=
